# Blender v2.93.4 OBJ File: 'Planks.blend'
# www.blender.org
mtllib Plank2.mtl
o Cube.002
v 1.000000 0.332120 -5.227202
v 1.000000 -0.332120 -5.227202
v 0.886563 -0.271898 4.999471
v -1.000000 -0.332120 5.227202
v -0.884667 -0.292124 -0.232760
v 0.837407 -0.292124 -0.232760
v -0.995033 -0.330397 -5.012094
v -0.784834 -0.332120 -5.227202
v -0.784834 0.115560 -5.227202
v -0.497270 0.344707 -5.155030
v -0.988043 0.326697 -4.709404
v -0.995033 0.113307 -5.012094
v 0.845520 0.282421 0.039678
v 0.837407 0.007240 -0.232760
v 0.792727 0.222313 -0.900001
v 0.564836 0.279811 -0.232760
v -1.000000 0.259715 5.227202
v -0.884667 0.207406 -0.232760
v -0.812249 0.279811 -0.232760
v -0.848938 0.263980 -0.378319
v 0.050984 -0.304366 4.998724
v 0.016339 -0.292124 -0.232760
v -1.000000 0.259715 5.227202
v -0.922635 0.329876 4.993009
v 0.044295 0.130793 4.998724
v 0.912697 0.352123 4.833230
v 0.886563 0.164296 4.999471
v 0.045172 0.130814 4.997766
v 0.050190 0.356179 4.769926
v -0.137377 -0.319577 -5.045273
v -0.057182 0.361858 -5.065780
v 0.480227 -0.287687 4.999108
v 0.480228 0.148126 4.998648
v 0.412790 0.348638 -5.137541
v 0.547664 0.344844 -5.158134
v 0.547694 0.279811 -0.232760
v 0.412759 0.279811 -0.232760
v 0.547693 0.353839 4.806440
v 0.412760 0.354474 4.796536
v 0.480227 0.228484 4.848135
v 0.479360 0.226624 4.801735
v 0.481446 0.229302 -0.215626
v 0.480824 0.230042 -5.148353
vt 0.375000 0.869198
vt 0.538781 0.870034
vt 0.597749 1.000000
vt 0.597749 1.000000
vt 0.375000 1.000000
vt 0.691295 0.744053
vt 0.686648 0.623616
vt 0.864487 0.623616
vt 0.865885 0.744579
vt 0.739374 0.743698
vt 0.255802 0.623616
vt 0.375000 0.623616
vt 0.375000 0.750000
vt 0.317035 0.750000
vt 0.255802 0.750000
vt 0.375000 0.126384
vt 0.593351 0.126384
vt 0.625000 0.128175
vt 0.625000 0.237184
vt 0.543002 0.244676
vt 0.375000 0.244676
vt 0.539192 0.870036
vt 0.676635 0.865874
vt 0.625000 0.985284
vt 0.125000 0.505324
vt 0.151896 0.500000
vt 0.263448 0.500000
vt 0.375000 0.500000
vt 0.125000 0.623616
vt 0.676451 0.500000
vt 0.717629 0.500000
vt 0.810258 0.500000
vt 0.875000 0.512816
vt 0.875000 0.621825
vt 0.625000 0.500000
vt 0.625000 0.616874
vt 0.505856 0.623616
vt 0.625000 0.244676
vt 0.625000 0.276896
vt 0.543493 0.276896
vt 0.375000 0.276896
vt 0.625000 0.629923
vt 0.664570 0.623616
vt 0.539181 0.807969
vt 0.604696 0.810454
vt 0.625000 0.820514
vt 0.625000 0.870435
vt 0.625000 0.126384
vt 0.539170 0.750000
vt 0.375000 0.807965
vt 0.375000 0.000000
vt 0.597749 0.000000
vt 0.125000 0.750000
vt 0.597749 0.000000
vt 0.625000 0.005455
vt 0.625000 0.801935
vt 0.625000 0.751679
vt 0.625000 0.744542
vt 0.625000 0.314742
vt 0.625000 0.407371
vt 0.375000 0.388448
vt 0.667059 0.623616
vt 0.673402 0.744185
vt 0.664633 0.500000
vt 0.624409 0.810616
vt 0.676364 0.623616
vt 0.681901 0.744122
vt 0.670246 0.500000
vt 0.625000 0.448549
vt 0.625000 0.454754
vt 0.625000 0.460367
vt 0.623874 0.801660
vn 0.2131 0.0014 0.9770
vn -0.0106 0.9999 -0.0132
vn 0.0196 -0.9998 0.0006
vn -0.9992 0.0305 0.0239
vn 0.1654 0.8175 0.5517
vn -0.0000 -1.0000 0.0069
vn -0.0123 0.9998 0.0145
vn 0.9976 0.0584 0.0363
vn -0.4793 0.7308 -0.4861
vn -0.7152 0.0000 -0.6989
vn 0.7046 0.7046 -0.0847
vn 0.0218 0.7122 0.7016
vn -0.7034 0.7036 0.1008
vn -0.0015 0.0005 1.0000
vn -0.9998 0.0000 -0.0211
vn 0.0137 -0.9999 -0.0048
vn -0.7069 0.7070 -0.0217
vn -0.1081 0.6871 0.7185
vn 0.9996 -0.0269 -0.0096
vn 0.2427 -0.0245 -0.9698
vn -0.0004 0.0016 1.0000
vn 0.0053 0.9999 -0.0146
vn 0.1222 0.9923 0.0211
vn 0.8869 0.4606 -0.0350
vn -0.7974 0.6035 -0.0044
vn -0.7786 0.6275 0.0042
vn -0.1547 -0.0059 -0.9879
vn 0.7775 0.6288 0.0044
vn 0.7970 0.6040 -0.0042
vn -0.8809 0.4733 -0.0025
usemtl Material.002
s off
f 21/1/1 25/2/1 23/3/1 17/4/1 4/5/1
f 39/6/2 37/7/2 19/8/2 24/9/2 29/10/2
f 22/11/3 6/12/3 3/13/3 32/14/3 21/15/3
f 5/16/4 18/17/4 20/18/4 11/19/4 12/20/4 7/21/4
f 28/22/5 29/23/5 24/24/5 23/3/5 25/2/5
f 7/25/6 8/26/6 30/27/6 2/28/6 6/12/6 22/11/6 5/29/6
f 37/7/7 34/30/7 31/31/7 10/32/7 11/33/7 20/34/7 19/8/7
f 2/28/8 1/35/8 15/36/8 14/37/8 6/12/8
f 11/38/9 10/39/9 9/40/9 12/20/9
f 9/40/10 8/41/10 7/21/10 12/20/10
f 13/42/11 14/37/11 15/36/11 16/43/11
f 28/22/12 33/44/12 40/45/12 39/46/12 29/47/12
f 18/17/13 19/48/13 20/18/13
f 3/13/14 27/49/14 33/44/14 32/50/14
f 4/51/15 17/52/15 18/17/15 5/16/15
f 5/29/16 22/11/16 21/15/16 4/53/16
f 23/54/17 24/55/17 19/48/17 18/17/17 17/52/17
f 38/56/18 40/45/18 33/44/18 27/49/18 26/57/18
f 6/12/19 14/37/19 13/42/19 26/58/19 27/49/19 3/13/19
f 8/41/20 9/40/20 10/59/20 31/60/20 30/61/20
f 32/50/21 33/44/21 28/22/21 25/2/21 21/1/21
f 13/42/22 16/43/22 36/62/22 38/63/22 26/58/22
f 1/35/23 35/64/23 36/62/23 16/43/23 15/36/23
f 41/65/24 39/46/24 40/45/24
f 42/66/25 41/67/25 38/63/25 36/62/25
f 43/68/26 42/66/26 36/62/26 35/64/26
f 30/61/27 31/60/27 34/69/27 43/70/27 35/71/27 1/35/27 2/28/27
f 34/30/28 37/7/28 42/66/28 43/68/28
f 37/7/29 39/6/29 41/67/29 42/66/29
f 38/72/30 41/65/30 40/45/30
