# Blender v2.93.4 OBJ File: 'Planks.blend'
# www.blender.org
mtllib Plank1.mtl
o Cube.001
v 1.022547 0.341309 -4.732832
v 1.022547 -0.258691 -4.732832
v 1.000000 -0.300000 5.000000
v -1.000000 -0.300000 -5.000000
v -1.000000 0.300000 5.000000
v -1.000000 -0.300000 5.000000
v 0.500000 -0.296923 4.948719
v 0.500000 0.296923 -4.948719
v 0.500000 -0.296923 -4.948719
v 0.988695 -0.267325 -5.423796
v 0.453201 -0.296923 -5.405011
v -1.000000 0.216092 -5.000000
v -1.000000 0.300000 -3.601542
v -0.721843 0.306208 -5.103464
v 0.988695 0.136086 -5.423796
v 0.998294 0.335123 -5.227871
v 0.473259 0.296923 -5.209442
v 0.453201 0.100333 -5.405011
v 1.000632 0.301158 4.727093
v 1.000000 0.028444 5.000000
v 0.500000 0.025367 4.948719
v 0.500000 0.296923 4.675743
v 0.292891 0.307442 5.124033
v 0.039321 -0.320321 -5.338678
v 0.039321 0.320321 5.338677
v -0.044706 0.321320 5.355333
v 0.039321 -0.320321 5.338678
v -0.044706 -0.321320 5.355333
v 0.039321 0.320321 -5.338678
v -0.907540 0.238593 1.561974
v -0.968588 -0.184192 1.504186
v -0.013294 -0.205512 1.555488
v -0.012306 0.276985 1.622904
v -0.013294 -0.205512 1.550827
v -0.177970 -0.318346 -5.305764
v -0.044059 -0.318936 -5.213151
v -0.044060 -0.318938 -5.213171
v -0.044046 0.320417 -5.213151
v -0.177970 0.318346 -5.305764
vt 0.376282 0.812061
vt 0.510569 0.812061
vt 0.628101 0.838132
vt 0.633467 0.870050
vt 0.366533 0.870050
vt 0.687061 0.501282
vt 0.745050 0.491533
vt 0.745050 0.758467
vt 0.713131 0.753101
vt 0.687061 0.741894
vt 0.312939 0.501282
vt 0.375000 0.500000
vt 0.375000 0.750000
vt 0.312939 0.748718
vt 0.625000 0.500000
vt 0.625000 0.742990
vt 0.376282 0.437939
vt 0.623718 0.437939
vt 0.623718 0.437939
vt 0.541806 0.437939
vt 0.376282 0.437939
vt 0.375000 0.000000
vt 0.625000 0.000000
vt 0.625000 0.107519
vt 0.625000 0.215039
vt 0.590039 0.250000
vt 0.375000 0.250000
vt 0.375000 0.106953
vt 0.366117 0.880588
vt 0.633883 0.880588
vt 0.625000 1.000000
vt 0.375000 1.000000
vt 0.511852 0.750000
vt 0.125000 0.643047
vt 0.244412 0.644330
vt 0.244412 0.758883
vt 0.125000 0.750000
vt 0.366533 0.379950
vt 0.633467 0.379950
vt 0.625000 0.500000
vt 0.687061 0.501282
vt 0.543088 0.500000
vt 0.375000 0.500000
vt 0.312939 0.501282
vt 0.840230 0.497413
vt 0.254950 0.491533
vt 0.254950 0.758467
vt 0.623749 0.439460
vt 0.623718 0.812061
vt 0.624931 0.753359
vt 0.755588 0.494236
vt 0.772246 0.492356
vt 0.875000 0.534961
vt 0.875000 0.642481
vt 0.875000 0.750000
vt 0.755588 0.758883
vt 0.755588 0.644213
vt 0.627587 0.284770
vt 0.632644 0.352754
vt 0.367356 0.352754
vt 0.366117 0.661679
vt 0.686003 0.713799
vt 0.125000 0.500000
vt 0.227754 0.492356
vt 0.244412 0.494268
vt 0.366544 0.363672
vt 0.366544 0.363673
vt 0.633507 0.369412
vt 0.367110 0.369412
vt 0.366117 0.375429
vt 0.754171 0.495654
vn 0.6461 0.0000 0.7633
vn 0.0507 0.9987 0.0000
vn 0.0349 -0.9994 -0.0021
vn -0.0480 0.9988 0.0020
vn -0.9948 0.0000 0.1020
vn -0.9989 0.0471 0.0000
vn -0.3486 0.0000 0.9373
vn 1.0000 -0.0000 0.0023
vn -0.0155 -0.9994 -0.0319
vn 0.6461 0.0000 -0.7633
vn -0.0780 0.9969 -0.0029
vn -0.0351 0.0000 -0.9994
vn 0.0634 -0.9980 0.0031
vn -0.3267 0.9434 -0.0566
vn 0.0507 -0.9987 0.0000
vn -0.0739 0.7043 -0.7061
vn 0.9988 0.0000 -0.0489
vn 0.8423 0.3822 0.3802
vn -0.0774 0.7061 0.7039
vn -0.1020 0.0000 0.9948
vn -0.0257 0.9997 -0.0000
vn -0.3486 -0.0000 -0.9373
vn -1.0000 -0.0000 0.0000
vn 1.0000 -0.0014 0.0085
vn -0.0196 -0.9997 0.0174
vn 0.0720 0.9927 -0.0964
vn 0.5688 -0.0000 -0.8225
vn 1.0000 -0.0006 -0.0046
usemtl Material.001
s off
f 7/1/1 21/2/1 23/3/1 25/4/1 27/5/1
f 8/6/2 29/7/2 25/8/2 23/9/2 22/10/2
f 9/11/3 2/12/3 3/13/3 7/14/3
f 1/15/4 8/6/4 22/10/4 19/16/4
f 9/17/5 8/18/5 17/19/5 18/20/5 11/21/5
f 6/22/6 5/23/6 30/24/6 13/25/6 12/26/6 4/27/6 31/28/6
f 28/29/7 26/30/7 5/31/7 6/32/7
f 2/12/8 1/15/8 19/16/8 20/33/8 3/13/8
f 31/34/9 32/35/9 28/36/9 6/37/9
f 24/38/10 29/39/10 8/18/10 9/17/10
f 8/6/11 1/15/11 16/40/11 17/41/11
f 11/21/12 18/20/12 15/42/12 10/43/12
f 2/12/13 9/11/13 11/44/13 10/43/13
f 12/26/14 13/25/14 14/45/14
f 24/46/15 9/11/15 7/14/15 27/47/15
f 17/48/16 16/40/16 15/42/16 18/20/16
f 1/15/17 2/12/17 10/43/17 15/42/17 16/40/17
f 21/2/18 22/49/18 23/3/18
f 19/50/19 22/49/19 21/2/19 20/33/19
f 3/13/20 20/33/20 21/2/20 7/1/20
f 38/51/21 39/52/21 14/45/21 13/53/21 30/54/21 5/55/21 26/56/21 33/57/21
f 4/27/22 12/26/22 14/58/22 39/59/22 35/60/22
f 29/7/23 24/46/23 27/5/23 25/8/23
f 34/61/24 33/62/24 26/30/24 28/29/24
f 4/63/25 35/64/25 37/65/25 32/35/25 31/34/25
f 35/60/26 36/66/26 37/67/26
f 35/60/27 39/59/27 38/68/27 36/69/27
f 36/70/28 38/71/28 33/62/28 34/61/28
