# Blender v2.93.4 OBJ File: 'Planks.blend'
# www.blender.org
mtllib Plank3.mtl
o Cube.004
v 1.000000 -0.332120 -5.227202
v 1.000000 -0.332120 5.227202
v -0.997332 -0.343281 5.081867
v -0.553571 -0.332120 -5.227202
v -0.511854 0.289561 5.122950
v -0.534523 -0.328875 5.122826
v -0.553571 0.332120 -5.227202
v -0.487805 -0.332120 -5.227202
v -0.487805 0.279330 -5.227202
v -0.328858 0.332120 5.227202
v 1.000000 0.264461 5.227202
v 1.000000 0.332120 4.162329
v 0.796282 0.332120 5.227202
v -0.328858 0.332120 -4.960003
v -0.552774 0.278919 1.979023
v -0.999202 0.278919 1.987235
v 1.000798 0.278919 1.950442
v -0.485525 0.273729 1.978525
v -0.328060 0.278919 1.974888
v -0.487805 -0.332120 1.984218
v 1.000000 -0.332120 1.970006
v -1.000000 -0.332120 1.923650
v -1.000000 -0.332120 2.054573
v -1.000000 -0.266662 1.988786
v 1.000000 -0.332120 2.035468
v 1.000000 -0.332120 1.904545
v 1.000000 -0.266694 1.967938
v -0.487805 -0.332120 1.918756
v -0.487805 -0.332120 2.049679
v -0.553571 -0.332120 2.050306
v -0.553571 -0.332120 1.919383
v -0.553571 0.332120 1.880955
v -0.553571 0.332120 2.074226
v -1.000000 0.332120 2.082438
v -1.000000 0.332120 1.889168
v -1.000000 0.235502 1.986284
v -0.328858 0.332120 2.070091
v -0.346192 0.332120 1.801979
v 0.982666 0.332120 1.777532
v 1.000000 0.332120 2.045645
v 1.000000 0.235549 1.952062
v -0.487805 0.279330 1.879745
v -0.487805 0.279330 2.073015
v -1.000000 -0.332120 -4.966579
v -0.739377 -0.332120 -5.227202
v -0.739377 0.214815 -5.227202
v -0.573483 0.332120 -5.227202
v -1.000000 0.332120 -4.800685
v -1.000000 0.214815 -4.966579
v -0.487758 0.279346 -5.227202
v -0.328883 0.332111 -4.960045
v -0.061708 0.332114 -5.227202
v 1.000000 0.265354 -5.227202
v 1.000000 0.332120 -5.160437
v -0.128424 0.332120 -5.160437
v -0.061708 0.332114 -5.227202
v -0.328858 0.332120 -3.413635
v 1.000000 -0.332120 -3.396086
v 0.676558 0.332120 -3.380313
v 0.893369 0.304447 -2.802911
v 1.000000 0.008758 -3.382491
v 1.000000 0.332120 -3.693213
v -0.997332 0.214407 5.081867
v -0.851202 0.318252 5.070541
v -0.955494 0.299865 4.908869
v -0.308384 -0.332120 5.227202
v -0.487805 -0.332120 5.047781
v -0.487805 0.279330 5.047781
v -0.328858 0.332120 5.227202
v -0.989950 -0.340145 5.263574
v -0.989950 0.217543 5.263574
v -0.866280 0.321387 5.242991
v -0.543544 -0.326999 5.226002
v -0.619093 -0.328013 5.290272
v -0.595496 0.298493 5.284810
v -0.520875 0.291437 5.226126
v 0.393150 -0.326505 -5.169259
v 0.419114 0.316112 -5.169259
v 0.457120 -0.320073 5.150486
v 0.433704 0.344166 5.150486
vt 0.125000 0.506232
vt 0.157578 0.500000
vt 0.180804 0.500000
vt 0.180804 0.670899
vt 0.125000 0.671001
vt 0.819196 0.674602
vt 0.875000 0.674798
vt 0.875000 0.747452
vt 0.861681 0.750000
vt 0.819196 0.750000
vt 0.757690 0.499978
vt 0.624997 0.329918
vt 0.625000 0.329921
vt 0.724547 0.457502
vt 0.757690 0.499978
vt 0.625000 0.748153
vt 0.600672 0.752787
vt 0.604878 0.925555
vt 0.625000 0.935976
vt 0.625000 0.935976
vt 0.375000 0.078999
vt 0.399636 0.077441
vt 0.588636 0.077501
vt 0.625000 0.079824
vt 0.625000 0.239801
vt 0.580850 0.243768
vt 0.375000 0.243768
vt 0.861681 0.750000
vt 0.827780 0.750000
vt 0.819196 0.750000
vt 0.375000 0.673675
vt 0.189024 0.674015
vt 0.189024 0.672449
vt 0.375000 0.672109
vt 0.599535 0.750000
vt 0.625000 0.724535
vt 0.650465 0.750000
vt 0.318474 0.803465
vt 0.371808 0.928493
vt 0.590351 0.328805
vt 0.600399 0.741562
vt 0.625000 0.736655
vt 0.625000 0.421917
vt 0.590362 0.328800
vt 0.625000 0.673918
vt 0.791107 0.674503
vt 0.791107 0.750000
vt 0.709701 0.750000
vt 0.625000 0.552161
vt 0.665430 0.544165
vt 0.791107 0.543369
vt 0.791107 0.669881
vt 0.625000 0.669296
vt 0.819196 0.500000
vt 0.687158 0.802018
vt 0.685363 0.806124
vt 0.683568 0.810230
vt 0.625000 0.944196
vt 0.180804 0.750000
vt 0.180804 0.674030
vt 0.399624 0.672060
vt 0.588654 0.671680
vt 0.375000 0.750000
vt 0.791107 0.672192
vt 0.625000 0.671607
vt 0.189024 0.500000
vt 0.282012 0.500000
vt 0.375000 0.500000
vt 0.375000 0.543788
vt 0.375000 0.670544
vt 0.189024 0.670884
vt 0.503296 0.544113
vt 0.316145 0.798005
vt 0.375000 0.075868
vt 0.125000 0.674132
vt 0.125000 0.750000
vt 0.625000 0.075202
vt 0.625000 0.076357
vt 0.625000 0.077513
vt 0.293226 0.750000
vt 0.211452 0.750000
vt 0.189024 0.745709
vt 0.819196 0.672291
vt 0.875000 0.672487
vt 0.819196 0.669980
vt 0.875000 0.670176
vt 0.600536 0.747190
vt 0.317310 0.800735
vt 0.375000 0.282578
vt 0.580850 0.282578
vt 0.625000 0.303315
vt 0.625000 0.305804
vt 0.375000 0.305804
vt 0.821685 0.500000
vt 0.875000 0.510199
vt 0.842422 0.500000
vt 0.875000 0.506232
vt 0.605138 0.314030
vt 0.599871 0.500000
vt 0.616862 0.410258
vt 0.624998 0.367287
vt 0.625000 0.367293
vt 0.625000 0.500000
vt 0.375000 0.314024
vt 0.605132 0.314024
vt 0.624998 0.367287
vt 0.375000 0.407012
vt 0.625000 0.501597
vt 0.625000 0.536683
vt 0.766053 0.501597
vt 0.791107 0.506390
vt 0.584897 0.000000
vt 0.625000 0.986681
vt 0.375000 0.000000
vt 0.625000 0.002548
vt 0.375000 0.913548
vt 0.625000 0.916107
vt 0.625000 0.775465
vt 0.625000 0.834701
vt 0.375000 0.831774
vt 0.625000 0.944196
vt 0.180804 0.750000
vt 0.375000 0.000000
vt 0.584897 0.000000
vt 0.375000 0.953003
vt 0.625000 0.952780
vt 0.625000 0.986681
vt 0.584897 1.000000
vt 0.375000 1.000000
vt 0.625000 0.944196
vt 0.180804 0.750000
vt 0.171997 0.750000
vt 0.125000 0.750000
vt 0.625000 0.916107
vn 0.0000 -1.0000 0.0000
vn 0.0106 0.9999 0.0089
vn -0.1219 0.9850 -0.1221
vn -0.3152 0.9490 0.0000
vn -1.0000 0.0000 0.0000
vn 0.0859 0.9963 -0.0106
vn 0.3146 0.9473 0.0602
vn -0.3274 0.9449 -0.0004
vn 0.0000 1.0000 -0.0017
vn 0.0109 0.9999 -0.0006
vn 1.0000 -0.0051 -0.0029
vn 1.0000 0.0000 0.0000
vn 0.0054 0.9559 0.2936
vn 0.0000 -1.0000 -0.0004
vn 0.9956 0.0933 -0.0049
vn 0.0159 -0.9999 -0.0014
vn -0.9998 0.0184 0.0000
vn 0.0000 -1.0000 0.0017
vn 0.9977 -0.0208 -0.0645
vn -0.0090 0.8729 -0.4879
vn 0.0088 0.8790 0.4768
vn -0.1279 0.9673 0.2190
vn -0.9999 0.0024 0.0140
vn -0.9999 0.0021 -0.0143
vn -0.1782 0.9391 -0.2940
vn -0.0000 0.0000 -1.0000
vn 0.0000 1.0000 0.0000
vn -0.5000 0.7071 -0.5000
vn -0.7071 0.0000 -0.7071
vn -0.1220 0.9850 -0.1220
vn 0.0058 0.8352 -0.5500
vn 0.0655 -0.0227 -0.9976
vn 0.7034 0.7028 0.1061
vn -0.5456 0.7963 0.2614
vn -0.9995 0.0313 0.0021
vn -0.7267 -0.0117 0.6869
vn -0.1401 -0.0239 0.9899
vn 0.9955 -0.0365 0.0877
vn -0.9992 0.0000 0.0406
vn -0.0671 0.0277 0.9974
vn -0.6118 0.7906 -0.0273
vn 0.6329 -0.0202 0.7740
vn 0.0304 -0.9994 0.0183
vn -0.0970 0.0020 -0.9953
vn 0.0999 0.0033 0.9950
usemtl Material.004
s off
f 44/1/1 45/2/1 4/3/1 31/4/1 22/5/1
f 33/6/2 34/7/2 65/8/2 64/9/2 5/10/2
f 52/11/3 51/12/3 14/13/3 55/14/3 56/15/3
f 37/16/4 43/17/4 68/18/4 69/19/4 10/20/4
f 22/21/5 24/22/5 36/23/5 35/24/5 48/25/5 49/26/5 44/27/5
f 5/10/6 64/9/6 72/28/6 75/29/6 76/30/6
f 25/31/1 29/32/1 20/33/1 21/34/1
f 11/35/7 12/36/7 13/37/7
f 68/18/5 43/17/5 29/38/5 67/39/5
f 9/40/8 42/41/8 38/42/8 57/43/8 14/13/8 51/12/8 50/44/8
f 40/45/9 37/46/9 10/47/9 80/48/9 13/37/9 12/36/9
f 60/49/10 59/50/10 57/51/10 38/52/10 39/53/10
f 4/3/11 7/54/11 32/55/11 15/56/11 33/57/11 5/58/11 6/59/11 30/60/11 31/4/11
f 25/31/12 27/61/12 41/62/12 40/45/12 12/36/12 11/35/12 2/63/12
f 39/53/13 38/52/13 19/64/13 17/65/13
f 8/66/14 77/67/14 1/68/14 58/69/14 26/70/14 28/71/14
f 58/69/15 61/72/15 60/49/15 39/53/15 41/62/15 27/61/15 26/70/15
f 28/73/5 42/41/5 9/40/5 8/66/5
f 22/21/5 23/74/5 24/22/5
f 25/31/12 21/34/12 26/70/12 27/61/12
f 21/34/1 20/33/1 28/71/1 26/70/1
f 30/60/1 23/75/1 22/5/1 31/4/1
f 23/75/16 30/60/16 6/59/16 3/76/16
f 34/77/17 16/78/17 35/79/17 36/23/17
f 29/32/18 25/31/18 2/63/18 79/80/18 66/81/18 67/82/18
f 39/53/19 17/65/19 40/45/19 41/62/19
f 17/65/20 19/64/20 37/46/20 40/45/20
f 15/83/20 16/84/20 34/7/20 33/6/20
f 32/85/21 35/86/21 16/84/21 15/83/21
f 42/41/22 18/87/22 19/64/22 38/42/22
f 18/87/23 42/41/23 28/73/23 20/88/23
f 43/17/24 18/87/24 20/88/24 29/38/24
f 37/16/25 19/64/25 18/87/25 43/17/25
f 45/89/26 46/90/26 47/91/26 7/92/26 4/93/26
f 7/54/27 47/94/27 48/95/27 35/86/27 32/85/27
f 48/95/28 47/94/28 46/96/28 49/97/28
f 46/90/29 45/89/29 44/27/29 49/26/29
f 50/98/30 51/12/30 52/11/30
f 53/99/31 78/100/31 56/101/31 55/102/31 54/103/31
f 8/104/32 9/105/32 50/98/32 52/106/32 56/101/32 78/100/32 77/107/32
f 1/68/12 53/99/12 54/108/12 62/109/12 61/72/12 58/69/12
f 59/50/33 60/49/33 61/72/33 62/109/33
f 54/108/27 55/110/27 14/111/27 57/51/27 59/50/27 62/109/27
f 63/112/34 64/113/34 65/8/34
f 3/114/35 63/112/35 65/115/35 34/77/35 36/23/35 24/22/35 23/74/35
f 66/116/36 69/117/36 68/18/36 67/39/36
f 2/63/37 11/35/37 13/118/37 80/119/37 79/120/37
f 6/59/38 5/58/38 76/121/38 73/122/38
f 63/112/39 3/114/39 70/123/39 71/124/39
f 74/125/40 75/126/40 72/127/40 71/128/40 70/129/40
f 64/113/41 63/112/41 71/124/41 72/127/41
f 75/130/42 74/131/42 73/122/42 76/121/42
f 3/76/43 6/59/43 73/122/43 74/132/43 70/133/43
f 77/107/44 78/100/44 53/99/44 1/68/44
f 79/120/45 80/119/45 10/134/45 69/117/45 66/116/45
